<?xml version="1.0" encoding="utf-8"?>
<!-- Generator: Adobe Illustrator 16.0.0, SVG Export Plug-In . SVG Version: 6.00 Build 0)  -->
<!DOCTYPE svg PUBLIC "-//W3C//DTD SVG 1.1//EN" "http://www.w3.org/Graphics/SVG/1.1/DTD/svg11.dtd">
<svg version="1.1" id="Capa_1" xmlns="http://www.w3.org/2000/svg" xmlns:xlink="http://www.w3.org/1999/xlink" x="0px" y="0px"
	 width="44.238px" height="44.238px" viewBox="0 0 44.238 44.238" enable-background="new 0 0 44.238 44.238" xml:space="preserve">
<path fill="#333333" d="M22.119,0.001C9.922,0.001,0,9.924,0,22.12c0,12.195,9.922,22.117,22.119,22.117
	c12.195,0,22.119-9.92,22.119-22.117S34.316,0.001,22.119,0.001z M31.434,22.869h-8.565v8.563c0,0.415-0.336,0.751-0.75,0.751
	s-0.75-0.336-0.75-0.75v-8.564h-8.563c-0.414,0-0.75-0.336-0.75-0.75s0.336-0.75,0.75-0.75h8.563v-8.563
	c0-0.414,0.336-0.75,0.75-0.75s0.75,0.336,0.75,0.75v8.563h8.564c0.414,0,0.75,0.336,0.75,0.75S31.848,22.869,31.434,22.869z"/>
</svg>
