<?xml version="1.0" encoding="utf-8"?>
<!-- Generator: Adobe Illustrator 16.0.0, SVG Export Plug-In . SVG Version: 6.00 Build 0)  -->
<!DOCTYPE svg PUBLIC "-//W3C//DTD SVG 1.1//EN" "http://www.w3.org/Graphics/SVG/1.1/DTD/svg11.dtd">
<svg version="1.1" id="Capa_1" xmlns="http://www.w3.org/2000/svg" xmlns:xlink="http://www.w3.org/1999/xlink" x="0px" y="0px"
	 width="44.24px" height="44.24px" viewBox="0 0 44.24 44.24" enable-background="new 0 0 44.24 44.24" xml:space="preserve">
<path fill="#333333" d="M22.12,0C9.922,0-0.001,9.924-0.001,22.121c0,12.196,9.924,22.119,22.121,22.119
	c12.195,0,22.121-9.921,22.122-22.119C44.242,9.924,34.317,0,22.12,0z M9.62,31.495l6.25-16.667l8.334,10.418l4.166-3.126
	l6.25,9.375H9.62z M31.495,18.995c-1.727,0-3.125-1.399-3.125-3.125c0-1.726,1.398-3.125,3.125-3.125
	c1.726,0,3.125,1.399,3.125,3.125C34.62,17.596,33.221,18.995,31.495,18.995z"/>
</svg>
