<?xml version="1.0" encoding="utf-8"?>
<!-- Generator: Adobe Illustrator 16.0.0, SVG Export Plug-In . SVG Version: 6.00 Build 0)  -->
<!DOCTYPE svg PUBLIC "-//W3C//DTD SVG 1.1//EN" "http://www.w3.org/Graphics/SVG/1.1/DTD/svg11.dtd">
<svg version="1.1" id="Capa_1" xmlns="http://www.w3.org/2000/svg" xmlns:xlink="http://www.w3.org/1999/xlink" x="0px" y="0px"
	 width="44.24px" height="44.24px" viewBox="233.88 233.88 44.24 44.24" enable-background="new 233.88 233.88 44.24 44.24"
	 xml:space="preserve">
<g>
	<circle cx="265.375" cy="249.75" r="3.125"/>
	<polygon points="268.5,265.375 243.5,265.375 249.75,248.708 258.084,259.126 262.25,256 	"/>
</g>
<path d="M256.001,278.122c-12.198,0-22.121-9.923-22.121-22.119c0-12.197,9.923-22.121,22.121-22.121
	c12.198,0,22.122,9.923,22.122,22.121S268.197,278.122,256.001,278.122z M256.001,235.382c-11.37,0-20.621,9.251-20.621,20.621
	s9.251,20.621,20.621,20.621c11.37,0,20.622-9.251,20.622-20.621S267.371,235.382,256.001,235.382z"/>
</svg>
