<?xml version="1.0" encoding="utf-8"?>
<!-- Generator: Adobe Illustrator 16.0.4, SVG Export Plug-In . SVG Version: 6.00 Build 0)  -->
<!DOCTYPE svg PUBLIC "-//W3C//DTD SVG 1.1//EN" "http://www.w3.org/Graphics/SVG/1.1/DTD/svg11.dtd">
<svg version="1.1" id="Layer_1" xmlns="http://www.w3.org/2000/svg" xmlns:xlink="http://www.w3.org/1999/xlink" x="0px" y="0px"
	 width="12.5px" height="50px" viewBox="5.75 -13 12.5 50" enable-background="new 5.75 -13 12.5 50" xml:space="preserve">
<path fill="#F3F3F3" d="M12,24.5c3.451,0,6.25,2.799,6.25,6.25S15.451,37,12,37c-3.452,0-6.25-2.799-6.25-6.25S8.548,24.5,12,24.5
	 M12,5.75c3.451,0,6.25,2.799,6.25,6.25s-2.799,6.25-6.25,6.25c-3.452,0-6.25-2.799-6.25-6.25S8.548,5.75,12,5.75 M12-13
	c3.451,0,6.25,2.798,6.25,6.25c0,3.451-2.799,6.25-6.25,6.25c-3.452,0-6.25-2.799-6.25-6.25C5.75-10.202,8.548-13,12-13z"/>
</svg>
