<?xml version="1.0" encoding="utf-8"?>
<!-- Generator: Adobe Illustrator 16.0.4, SVG Export Plug-In . SVG Version: 6.00 Build 0)  -->
<!DOCTYPE svg PUBLIC "-//W3C//DTD SVG 1.1//EN" "http://www.w3.org/Graphics/SVG/1.1/DTD/svg11.dtd">
<svg version="1.1" id="Capa_1" xmlns="http://www.w3.org/2000/svg" xmlns:xlink="http://www.w3.org/1999/xlink" x="0px" y="0px"
	 width="50px" height="50px" viewBox="574.999 289 50 50" enable-background="new 574.999 289 50 50" xml:space="preserve">
<g>
	<g>
		<g>
			<polygon fill="#F3F3F3" points="608.077,322.078 605.296,313.675 589.233,297.612 583.611,303.234 599.674,319.297 			"/>
			<path fill="#F3F3F3" d="M581.786,290.165c-1.553-1.553-4.069-1.553-5.622,0s-1.553,4.069,0,5.622l4.138,4.138l5.622-5.622
				L581.786,290.165z"/>
			<path fill="#F3F3F3" d="M621.874,298.375h-22.153l3.125,3.125h19.028v34.375h-34.375V316.85l-3.125-3.125v22.15
				c0,1.729,1.4,3.125,3.125,3.125h34.375c1.729,0,3.125-1.396,3.125-3.125V301.5C624.999,299.775,623.6,298.375,621.874,298.375z"
				/>
		</g>
	</g>
</g>
</svg>
