<?xml version="1.0" encoding="utf-8"?>
<!-- Generator: Adobe Illustrator 16.0.0, SVG Export Plug-In . SVG Version: 6.00 Build 0)  -->
<!DOCTYPE svg PUBLIC "-//W3C//DTD SVG 1.1//EN" "http://www.w3.org/Graphics/SVG/1.1/DTD/svg11.dtd">
<svg version="1.1" id="Capa_1" xmlns="http://www.w3.org/2000/svg" xmlns:xlink="http://www.w3.org/1999/xlink" x="0px" y="0px"
	 width="44.24px" height="44.24px" viewBox="0 0 44.24 44.24" enable-background="new 0 0 44.24 44.24" xml:space="preserve">
<path fill="#333333" d="M22.12,44.24c-12.197,0-22.121-9.923-22.121-22.119C-0.001,9.924,9.922,0,22.12,0
	c12.197,0,22.122,9.924,22.122,22.121C44.241,34.319,34.315,44.24,22.12,44.24z M22.12,1.5c-11.37,0-20.621,9.251-20.621,20.621
	S10.75,42.742,22.12,42.742s20.622-9.251,20.622-20.621S33.489,1.5,22.12,1.5z"/>
<g>
	<path fill="#333333" d="M22.952,31.396c0,0.459-0.373,0.832-0.832,0.832l0,0c-0.46,0-0.833-0.373-0.833-0.832V18.845
		c0-0.459,0.373-0.831,0.833-0.831l0,0c0.459,0,0.832,0.372,0.832,0.831V31.396z"/>
	<circle fill="#333333" cx="22.12" cy="13.122" r="1.109"/>
</g>
</svg>
