<?xml version="1.0" encoding="utf-8"?>
<!-- Generator: Adobe Illustrator 16.0.0, SVG Export Plug-In . SVG Version: 6.00 Build 0)  -->
<!DOCTYPE svg PUBLIC "-//W3C//DTD SVG 1.1//EN" "http://www.w3.org/Graphics/SVG/1.1/DTD/svg11.dtd">
<svg version="1.1" id="Capa_1" xmlns="http://www.w3.org/2000/svg" xmlns:xlink="http://www.w3.org/1999/xlink" x="0px" y="0px"
	 width="44.24px" height="44.24px" viewBox="0 0 44.24 44.24" enable-background="new 0 0 44.24 44.24" xml:space="preserve">
<path fill="#333333" d="M22.12,0C9.922,0-0.001,9.924-0.001,22.121c0,12.196,9.924,22.119,22.121,22.119
	c12.195,0,22.121-9.921,22.122-22.119C44.242,9.924,34.317,0,22.12,0z M22.952,31.396c0,0.459-0.373,0.832-0.832,0.832
	c-0.46,0-0.833-0.373-0.833-0.832V18.845c0-0.459,0.373-0.831,0.833-0.831c0.459,0,0.832,0.372,0.832,0.831V31.396z M22.12,14.231
	c-0.613,0-1.109-0.497-1.109-1.109s0.496-1.109,1.109-1.109c0.612,0,1.109,0.497,1.109,1.109S22.732,14.231,22.12,14.231z"/>
</svg>
