<?xml version="1.0" encoding="utf-8"?>
<!-- Generator: Adobe Illustrator 16.0.0, SVG Export Plug-In . SVG Version: 6.00 Build 0)  -->
<!DOCTYPE svg PUBLIC "-//W3C//DTD SVG 1.1//EN" "http://www.w3.org/Graphics/SVG/1.1/DTD/svg11.dtd">
<svg version="1.1" id="Capa_1" xmlns="http://www.w3.org/2000/svg" xmlns:xlink="http://www.w3.org/1999/xlink" x="0px" y="0px"
	 width="44.24px" height="44.24px" viewBox="373.88 283.88 44.24 44.24" enable-background="new 373.88 283.88 44.24 44.24"
	 xml:space="preserve">
<path d="M396.001,328.122c-12.198,0-22.121-9.923-22.121-22.119c0-12.197,9.923-22.121,22.121-22.121
	c12.198,0,22.122,9.923,22.122,22.121S408.197,328.122,396.001,328.122z M396.001,285.382c-11.37,0-20.621,9.251-20.621,20.621
	s9.251,20.621,20.621,20.621c11.37,0,20.622-9.251,20.622-20.621S407.371,285.382,396.001,285.382z"/>
<path d="M396.834,314.157c0,0.459-0.373,0.832-0.832,0.832l0,0c-0.46,0-0.833-0.373-0.833-0.832v-12.552
	c0-0.459,0.373-0.832,0.833-0.832l0,0c0.459,0,0.832,0.373,0.832,0.832V314.157z"/>
<circle cx="396" cy="297.12" r="1.109"/>
</svg>
