<?xml version="1.0" encoding="utf-8"?>
<!-- Generator: Adobe Illustrator 16.0.0, SVG Export Plug-In . SVG Version: 6.00 Build 0)  -->
<!DOCTYPE svg PUBLIC "-//W3C//DTD SVG 1.1//EN" "http://www.w3.org/Graphics/SVG/1.1/DTD/svg11.dtd">
<svg version="1.1" id="Capa_1" xmlns="http://www.w3.org/2000/svg" xmlns:xlink="http://www.w3.org/1999/xlink" x="0px" y="0px"
	 width="44.24px" height="44.24px" viewBox="0 0 44.24 44.24" enable-background="new 0 0 44.24 44.24" xml:space="preserve">
<path d="M22.12,44.24c-12.197,0-22.121-9.923-22.121-22.119C-0.001,9.924,9.922,0,22.12,0c12.198,0,22.122,9.924,22.122,22.121
	C44.241,34.319,34.315,44.24,22.12,44.24z M22.12,1.5c-11.37,0-20.621,9.251-20.621,20.621S10.75,42.742,22.12,42.742
	c11.37,0,20.622-9.251,20.622-20.621S33.489,1.5,22.12,1.5z"/>
<path d="M22.952,28.396c0,0.459-0.373,0.832-0.832,0.832l0,0c-0.46,0-0.833-0.373-0.833-0.832V15.844
	c0-0.459,0.373-0.832,0.833-0.832l0,0c0.459,0,0.832,0.373,0.832,0.832V28.396z"/>
<circle cx="22.12" cy="22.12" r="1.109"/>
</svg>
